<svg width="134" height="43" viewBox="0 0 134 43" fill="none" xmlns="http://www.w3.org/2000/svg">
<g clip-path="url(#clip0_41_3426)">
<path d="M0.840332 5.9375C0.840332 3.21416 2.67506 1 4.93172 1H23.343C25.5996 1 27.4343 3.21416 27.4343 5.9375V10.875C27.4343 13.5983 25.5996 15.8125 23.343 15.8125H4.93172C2.67506 15.8125 0.840332 13.5983 0.840332 10.875V5.9375ZM11.0688 28.1562C11.0688 26.7907 11.983 25.6875 13.1145 25.6875V24.4531C13.1145 21.0432 15.4031 18.2812 18.2287 18.2812H27.4343C28.5659 18.2812 29.48 17.178 29.48 15.8125V13.3438V6.36182C31.8645 7.38018 33.5714 10.1189 33.5714 13.3438V15.8125C33.5714 19.9014 30.8225 23.2188 27.4343 23.2188H18.2287C17.6662 23.2188 17.2059 23.7742 17.2059 24.4531V25.6875C18.3374 25.6875 19.2516 26.7907 19.2516 28.1562V38.0312C19.2516 39.3968 18.3374 40.5 17.2059 40.5H13.1145C11.983 40.5 11.0688 39.3968 11.0688 38.0312V28.1562Z" fill="white"/>
</g>
<path d="M51.3066 12.6782H47.5024V10.2788H51.3066C51.8945 10.2788 52.373 10.1831 52.7422 9.9917C53.1113 9.79346 53.3813 9.52002 53.5522 9.17139C53.7231 8.82275 53.8086 8.42969 53.8086 7.99219C53.8086 7.54785 53.7231 7.13428 53.5522 6.75146C53.3813 6.36865 53.1113 6.06104 52.7422 5.82861C52.373 5.59619 51.8945 5.47998 51.3066 5.47998H48.5688V18H45.4927V3.07031H51.3066C52.4756 3.07031 53.4771 3.28223 54.311 3.70605C55.1519 4.12305 55.7944 4.70068 56.2388 5.43896C56.6831 6.17725 56.9053 7.02148 56.9053 7.97168C56.9053 8.93555 56.6831 9.76953 56.2388 10.4736C55.7944 11.1777 55.1519 11.7212 54.311 12.104C53.4771 12.4868 52.4756 12.6782 51.3066 12.6782ZM64.7085 15.498V10.5557C64.7085 10.2002 64.6504 9.896 64.5342 9.64307C64.418 9.3833 64.2368 9.18164 63.9907 9.03809C63.7515 8.89453 63.4404 8.82275 63.0576 8.82275C62.7295 8.82275 62.4458 8.88086 62.2065 8.99707C61.9673 9.10645 61.7827 9.26709 61.6528 9.479C61.5229 9.68408 61.458 9.92676 61.458 10.207H58.5049C58.5049 9.73535 58.6143 9.2876 58.833 8.86377C59.0518 8.43994 59.3696 8.06738 59.7866 7.74609C60.2036 7.41797 60.6992 7.16162 61.2734 6.97705C61.8545 6.79248 62.5039 6.7002 63.2217 6.7002C64.083 6.7002 64.8486 6.84375 65.5186 7.13086C66.1885 7.41797 66.7148 7.84863 67.0977 8.42285C67.4873 8.99707 67.6821 9.71484 67.6821 10.5762V15.3237C67.6821 15.9321 67.7197 16.4312 67.7949 16.8208C67.8701 17.2036 67.9795 17.5386 68.123 17.8257V18H65.1392C64.9956 17.6992 64.8862 17.3232 64.811 16.8721C64.7427 16.4141 64.7085 15.9561 64.7085 15.498ZM65.0981 11.2427L65.1187 12.9141H63.4678C63.0781 12.9141 62.7397 12.9585 62.4526 13.0474C62.1655 13.1362 61.9297 13.2627 61.7451 13.4268C61.5605 13.584 61.4238 13.7686 61.335 13.9805C61.2529 14.1924 61.2119 14.4248 61.2119 14.6777C61.2119 14.9307 61.27 15.1597 61.3862 15.3647C61.5024 15.563 61.6699 15.7202 61.8887 15.8364C62.1074 15.9458 62.3638 16.0005 62.6577 16.0005C63.1021 16.0005 63.4883 15.9116 63.8164 15.7339C64.1445 15.5562 64.3975 15.3374 64.5752 15.0776C64.7598 14.8179 64.8555 14.5718 64.8623 14.3394L65.6416 15.5903C65.5322 15.8706 65.3818 16.1611 65.1904 16.4619C65.0059 16.7627 64.77 17.0464 64.4829 17.313C64.1958 17.5728 63.8506 17.7881 63.4473 17.959C63.0439 18.123 62.5654 18.2051 62.0117 18.2051C61.3076 18.2051 60.6685 18.0649 60.0942 17.7847C59.5269 17.4976 59.0757 17.1045 58.7407 16.6055C58.4126 16.0996 58.2485 15.5254 58.2485 14.8828C58.2485 14.3018 58.3579 13.7856 58.5767 13.3345C58.7954 12.8833 59.1167 12.5039 59.5405 12.1963C59.9712 11.8818 60.5078 11.646 61.1504 11.4888C61.793 11.3247 62.5381 11.2427 63.3857 11.2427H65.0981ZM73.0757 6.90527V18H70.1123V6.90527H73.0757ZM69.9277 4.01367C69.9277 3.58301 70.0781 3.22754 70.3789 2.94727C70.6797 2.66699 71.083 2.52686 71.5889 2.52686C72.0879 2.52686 72.4878 2.66699 72.7886 2.94727C73.0962 3.22754 73.25 3.58301 73.25 4.01367C73.25 4.44434 73.0962 4.7998 72.7886 5.08008C72.4878 5.36035 72.0879 5.50049 71.5889 5.50049C71.083 5.50049 70.6797 5.36035 70.3789 5.08008C70.0781 4.7998 69.9277 4.44434 69.9277 4.01367ZM78.4077 9.27393V18H75.4546V6.90527H78.2231L78.4077 9.27393ZM77.9771 12.063H77.1772C77.1772 11.2427 77.2832 10.5044 77.4951 9.84814C77.707 9.18506 78.0044 8.62109 78.3872 8.15625C78.77 7.68457 79.2246 7.32568 79.751 7.07959C80.2842 6.82666 80.8789 6.7002 81.5352 6.7002C82.0547 6.7002 82.5298 6.77539 82.9604 6.92578C83.3911 7.07617 83.7603 7.31543 84.0679 7.64355C84.3823 7.97168 84.6216 8.40576 84.7856 8.9458C84.9565 9.48584 85.042 10.1455 85.042 10.9248V18H82.0684V10.9146C82.0684 10.4224 82 10.0396 81.8633 9.76611C81.7266 9.49268 81.5249 9.30127 81.2583 9.19189C80.9985 9.07568 80.6772 9.01758 80.2944 9.01758C79.8979 9.01758 79.5527 9.09619 79.2588 9.25342C78.9717 9.41064 78.7324 9.62939 78.541 9.90967C78.3564 10.1831 78.2163 10.5044 78.1206 10.8735C78.0249 11.2427 77.9771 11.6392 77.9771 12.063ZM92.7222 6.90527V8.99707H86.2622V6.90527H92.7222ZM87.8618 4.16748H90.8149V14.6572C90.8149 14.9785 90.856 15.2246 90.938 15.3955C91.0269 15.5664 91.1567 15.686 91.3276 15.7544C91.4985 15.8159 91.7139 15.8467 91.9736 15.8467C92.1582 15.8467 92.3223 15.8398 92.4658 15.8262C92.6162 15.8057 92.7427 15.7852 92.8452 15.7646L92.8555 17.9385C92.6025 18.0205 92.3291 18.0854 92.0352 18.1333C91.7412 18.1812 91.4165 18.2051 91.061 18.2051C90.4116 18.2051 89.8442 18.0991 89.3589 17.8872C88.8804 17.6685 88.5112 17.3198 88.2515 16.8413C87.9917 16.3628 87.8618 15.7339 87.8618 14.9546V4.16748ZM97.521 6.90527V18H94.5576V6.90527H97.521ZM94.373 4.01367C94.373 3.58301 94.5234 3.22754 94.8242 2.94727C95.125 2.66699 95.5283 2.52686 96.0342 2.52686C96.5332 2.52686 96.9331 2.66699 97.2339 2.94727C97.5415 3.22754 97.6953 3.58301 97.6953 4.01367C97.6953 4.44434 97.5415 4.7998 97.2339 5.08008C96.9331 5.36035 96.5332 5.50049 96.0342 5.50049C95.5283 5.50049 95.125 5.36035 94.8242 5.08008C94.5234 4.7998 94.373 4.44434 94.373 4.01367ZM102.853 9.27393V18H99.8999V6.90527H102.668L102.853 9.27393ZM102.422 12.063H101.623C101.623 11.2427 101.729 10.5044 101.94 9.84814C102.152 9.18506 102.45 8.62109 102.833 8.15625C103.215 7.68457 103.67 7.32568 104.196 7.07959C104.729 6.82666 105.324 6.7002 105.98 6.7002C106.5 6.7002 106.975 6.77539 107.406 6.92578C107.836 7.07617 108.206 7.31543 108.513 7.64355C108.828 7.97168 109.067 8.40576 109.231 8.9458C109.402 9.48584 109.487 10.1455 109.487 10.9248V18H106.514V10.9146C106.514 10.4224 106.445 10.0396 106.309 9.76611C106.172 9.49268 105.97 9.30127 105.704 9.19189C105.444 9.07568 105.123 9.01758 104.74 9.01758C104.343 9.01758 103.998 9.09619 103.704 9.25342C103.417 9.41064 103.178 9.62939 102.986 9.90967C102.802 10.1831 102.662 10.5044 102.566 10.8735C102.47 11.2427 102.422 11.6392 102.422 12.063ZM118.757 6.90527H121.433V17.6309C121.433 18.6426 121.208 19.5005 120.756 20.2046C120.312 20.9155 119.69 21.4521 118.89 21.8145C118.09 22.1836 117.161 22.3682 116.101 22.3682C115.636 22.3682 115.144 22.3066 114.625 22.1836C114.112 22.0605 113.62 21.8691 113.148 21.6094C112.683 21.3496 112.293 21.0215 111.979 20.625L113.281 18.8818C113.623 19.2783 114.02 19.5859 114.471 19.8047C114.922 20.0303 115.421 20.1431 115.968 20.1431C116.501 20.1431 116.952 20.0439 117.321 19.8457C117.69 19.6543 117.974 19.3706 118.172 18.9946C118.371 18.6255 118.47 18.1777 118.47 17.6514V9.46875L118.757 6.90527ZM111.292 12.5859V12.3706C111.292 11.5229 111.395 10.7539 111.6 10.0635C111.812 9.36621 112.109 8.76807 112.492 8.26904C112.881 7.77002 113.353 7.38379 113.907 7.11035C114.46 6.83691 115.086 6.7002 115.783 6.7002C116.521 6.7002 117.14 6.83691 117.639 7.11035C118.138 7.38379 118.548 7.77344 118.87 8.2793C119.191 8.77832 119.44 9.36963 119.618 10.0532C119.803 10.73 119.946 11.4717 120.049 12.2783V12.75C119.946 13.5225 119.792 14.2402 119.587 14.9033C119.382 15.5664 119.112 16.1475 118.777 16.6465C118.442 17.1387 118.025 17.5215 117.526 17.7949C117.034 18.0684 116.446 18.2051 115.763 18.2051C115.079 18.2051 114.46 18.0649 113.907 17.7847C113.36 17.5044 112.892 17.1113 112.502 16.6055C112.112 16.0996 111.812 15.5049 111.6 14.8213C111.395 14.1377 111.292 13.3926 111.292 12.5859ZM114.245 12.3706V12.5859C114.245 13.0439 114.29 13.4712 114.378 13.8677C114.467 14.2642 114.604 14.6162 114.789 14.9238C114.98 15.2246 115.216 15.4604 115.496 15.6313C115.783 15.7954 116.122 15.8774 116.511 15.8774C117.051 15.8774 117.492 15.7646 117.834 15.5391C118.176 15.3066 118.432 14.9888 118.603 14.5854C118.774 14.1821 118.873 13.7173 118.9 13.1909V11.8477C118.887 11.417 118.829 11.0308 118.726 10.689C118.624 10.3403 118.48 10.043 118.295 9.79688C118.111 9.55078 117.872 9.35938 117.578 9.22266C117.284 9.08594 116.935 9.01758 116.532 9.01758C116.142 9.01758 115.804 9.10645 115.517 9.28418C115.236 9.45508 115 9.69092 114.809 9.9917C114.625 10.2925 114.484 10.6479 114.389 11.0581C114.293 11.4614 114.245 11.8989 114.245 12.3706ZM51.3066 33.6782H47.5024V31.2788H51.3066C51.8945 31.2788 52.373 31.1831 52.7422 30.9917C53.1113 30.7935 53.3813 30.52 53.5522 30.1714C53.7231 29.8228 53.8086 29.4297 53.8086 28.9922C53.8086 28.5479 53.7231 28.1343 53.5522 27.7515C53.3813 27.3687 53.1113 27.061 52.7422 26.8286C52.373 26.5962 51.8945 26.48 51.3066 26.48H48.5688V39H45.4927V24.0703H51.3066C52.4756 24.0703 53.4771 24.2822 54.311 24.7061C55.1519 25.123 55.7944 25.7007 56.2388 26.439C56.6831 27.1772 56.9053 28.0215 56.9053 28.9717C56.9053 29.9355 56.6831 30.7695 56.2388 31.4736C55.7944 32.1777 55.1519 32.7212 54.311 33.104C53.4771 33.4868 52.4756 33.6782 51.3066 33.6782ZM61.7964 30.3252V39H58.8433V27.9053H61.6221L61.7964 30.3252ZM65.1392 27.8335L65.0879 30.5713C64.9443 30.5508 64.77 30.5337 64.5649 30.52C64.3667 30.4995 64.1855 30.4893 64.0215 30.4893C63.6045 30.4893 63.2422 30.5439 62.9346 30.6533C62.6338 30.7559 62.3809 30.9097 62.1758 31.1147C61.9775 31.3198 61.8271 31.5693 61.7246 31.8633C61.6289 32.1572 61.5742 32.4922 61.5605 32.8682L60.9658 32.6836C60.9658 31.9658 61.0376 31.3062 61.1812 30.7046C61.3247 30.0962 61.5332 29.5664 61.8066 29.1152C62.0869 28.6641 62.4287 28.3154 62.832 28.0693C63.2354 27.8232 63.6968 27.7002 64.2163 27.7002C64.3804 27.7002 64.5479 27.7139 64.7188 27.7412C64.8896 27.7617 65.0298 27.7925 65.1392 27.8335ZM65.7544 33.5654V33.3501C65.7544 32.5366 65.8706 31.7881 66.103 31.1045C66.3354 30.4141 66.6738 29.8159 67.1182 29.3101C67.5625 28.8042 68.1094 28.4111 68.7588 28.1309C69.4082 27.8438 70.1533 27.7002 70.9941 27.7002C71.835 27.7002 72.5835 27.8438 73.2397 28.1309C73.896 28.4111 74.4463 28.8042 74.8906 29.3101C75.3418 29.8159 75.6836 30.4141 75.916 31.1045C76.1484 31.7881 76.2646 32.5366 76.2646 33.3501V33.5654C76.2646 34.3721 76.1484 35.1206 75.916 35.811C75.6836 36.4946 75.3418 37.0928 74.8906 37.6055C74.4463 38.1113 73.8994 38.5044 73.25 38.7847C72.6006 39.0649 71.8555 39.2051 71.0146 39.2051C70.1738 39.2051 69.4253 39.0649 68.769 38.7847C68.1196 38.5044 67.5693 38.1113 67.1182 37.6055C66.6738 37.0928 66.3354 36.4946 66.103 35.811C65.8706 35.1206 65.7544 34.3721 65.7544 33.5654ZM68.7075 33.3501V33.5654C68.7075 34.0303 68.7485 34.4644 68.8306 34.8677C68.9126 35.271 69.0425 35.6265 69.2202 35.9341C69.4048 36.2349 69.644 36.4707 69.938 36.6416C70.2319 36.8125 70.5908 36.8979 71.0146 36.8979C71.4248 36.8979 71.7769 36.8125 72.0708 36.6416C72.3647 36.4707 72.6006 36.2349 72.7783 35.9341C72.9561 35.6265 73.0859 35.271 73.168 34.8677C73.2568 34.4644 73.3013 34.0303 73.3013 33.5654V33.3501C73.3013 32.8989 73.2568 32.4751 73.168 32.0786C73.0859 31.6753 72.9526 31.3198 72.7681 31.0122C72.5903 30.6978 72.3545 30.4517 72.0605 30.2739C71.7666 30.0962 71.4111 30.0073 70.9941 30.0073C70.5771 30.0073 70.2217 30.0962 69.9277 30.2739C69.6406 30.4517 69.4048 30.6978 69.2202 31.0122C69.0425 31.3198 68.9126 31.6753 68.8306 32.0786C68.7485 32.4751 68.7075 32.8989 68.7075 33.3501ZM84.0781 35.9341C84.0781 35.7222 84.0166 35.5308 83.8936 35.3599C83.7705 35.189 83.5415 35.0317 83.2065 34.8882C82.8784 34.7378 82.4033 34.6011 81.7812 34.478C81.2207 34.355 80.6978 34.2012 80.2124 34.0166C79.7339 33.8252 79.3169 33.5962 78.9614 33.3296C78.6128 33.063 78.3394 32.7485 78.1411 32.3862C77.9429 32.0171 77.8438 31.5967 77.8438 31.125C77.8438 30.6602 77.9429 30.2227 78.1411 29.8125C78.3462 29.4023 78.6367 29.04 79.0127 28.7256C79.3955 28.4043 79.8604 28.1548 80.4072 27.9771C80.9609 27.7925 81.583 27.7002 82.2734 27.7002C83.2373 27.7002 84.0645 27.854 84.7549 28.1616C85.4521 28.4692 85.9854 28.8931 86.3545 29.4331C86.7305 29.9663 86.9185 30.5747 86.9185 31.2583H83.9653C83.9653 30.9712 83.9038 30.7148 83.7808 30.4893C83.6646 30.2568 83.48 30.0757 83.2271 29.9458C82.981 29.8091 82.6597 29.7407 82.2632 29.7407C81.9351 29.7407 81.6514 29.7988 81.4121 29.915C81.1729 30.0244 80.9883 30.1748 80.8584 30.3662C80.7354 30.5508 80.6738 30.7559 80.6738 30.9814C80.6738 31.1523 80.708 31.3062 80.7764 31.4429C80.8516 31.5728 80.9712 31.6924 81.1353 31.8018C81.2993 31.9111 81.5112 32.0137 81.771 32.1094C82.0376 32.1982 82.3657 32.2803 82.7554 32.3555C83.5552 32.5195 84.2695 32.7349 84.8984 33.0015C85.5273 33.2612 86.0264 33.6167 86.3955 34.0679C86.7646 34.5122 86.9492 35.0967 86.9492 35.8213C86.9492 36.3135 86.8398 36.7646 86.6211 37.1748C86.4023 37.585 86.0879 37.9438 85.6777 38.2515C85.2676 38.5522 84.7754 38.7881 84.2012 38.959C83.6338 39.123 82.9946 39.2051 82.2837 39.2051C81.2515 39.2051 80.3765 39.0205 79.6587 38.6514C78.9478 38.2822 78.4077 37.814 78.0386 37.2466C77.6763 36.6724 77.4951 36.0845 77.4951 35.4829H80.2944C80.3081 35.8862 80.4106 36.2109 80.6021 36.457C80.8003 36.7031 81.0498 36.8809 81.3506 36.9902C81.6582 37.0996 81.9897 37.1543 82.3452 37.1543C82.728 37.1543 83.0459 37.103 83.2988 37.0005C83.5518 36.8911 83.7432 36.7476 83.873 36.5698C84.0098 36.3853 84.0781 36.1733 84.0781 35.9341ZM91.666 36.5083L91.6558 38.4873C91.6558 39.2461 91.4644 40.0117 91.0815 40.7842C90.7056 41.5566 90.2271 42.189 89.646 42.6812L88.1079 41.8916C88.2788 41.5771 88.4463 41.2627 88.6104 40.9482C88.7744 40.6338 88.9111 40.2886 89.0205 39.9126C89.1299 39.5366 89.1846 39.1094 89.1846 38.6309V36.5083H91.666ZM102.72 24.0703V39H99.6538V24.0703H102.72ZM108.308 30.2739V39H105.355V27.9053H108.124L108.308 30.2739ZM107.877 33.063H107.078C107.078 32.2427 107.184 31.5044 107.396 30.8481C107.607 30.1851 107.905 29.6211 108.288 29.1562C108.67 28.6846 109.125 28.3257 109.651 28.0796C110.185 27.8267 110.779 27.7002 111.436 27.7002C111.955 27.7002 112.43 27.7754 112.861 27.9258C113.292 28.0762 113.661 28.3154 113.968 28.6436C114.283 28.9717 114.522 29.4058 114.686 29.9458C114.857 30.4858 114.942 31.1455 114.942 31.9248V39H111.969V31.9146C111.969 31.4224 111.9 31.0396 111.764 30.7661C111.627 30.4927 111.425 30.3013 111.159 30.1919C110.899 30.0757 110.578 30.0176 110.195 30.0176C109.798 30.0176 109.453 30.0962 109.159 30.2534C108.872 30.4106 108.633 30.6294 108.441 30.9097C108.257 31.1831 108.117 31.5044 108.021 31.8735C107.925 32.2427 107.877 32.6392 107.877 33.063ZM121.771 36.8979C122.134 36.8979 122.455 36.8296 122.735 36.6929C123.016 36.5493 123.234 36.3511 123.392 36.0981C123.556 35.8384 123.641 35.5342 123.648 35.1855H126.427C126.42 35.9648 126.211 36.6587 125.801 37.2671C125.391 37.8687 124.841 38.3438 124.15 38.6924C123.46 39.0342 122.688 39.2051 121.833 39.2051C120.972 39.2051 120.22 39.0615 119.577 38.7744C118.941 38.4873 118.412 38.0908 117.988 37.585C117.564 37.0723 117.246 36.4775 117.034 35.8008C116.822 35.1172 116.716 34.3857 116.716 33.6064V33.3091C116.716 32.5229 116.822 31.7915 117.034 31.1147C117.246 30.4312 117.564 29.8364 117.988 29.3306C118.412 28.8179 118.941 28.418 119.577 28.1309C120.213 27.8438 120.958 27.7002 121.812 27.7002C122.722 27.7002 123.518 27.8745 124.202 28.2231C124.892 28.5718 125.432 29.0708 125.822 29.7202C126.218 30.3628 126.42 31.125 126.427 32.0068H123.648C123.641 31.6377 123.562 31.3027 123.412 31.002C123.269 30.7012 123.057 30.4619 122.776 30.2842C122.503 30.0996 122.165 30.0073 121.761 30.0073C121.331 30.0073 120.979 30.0996 120.705 30.2842C120.432 30.4619 120.22 30.708 120.069 31.0225C119.919 31.3301 119.813 31.6821 119.751 32.0786C119.697 32.4683 119.669 32.8784 119.669 33.3091V33.6064C119.669 34.0371 119.697 34.4507 119.751 34.8472C119.806 35.2437 119.909 35.5957 120.059 35.9033C120.216 36.2109 120.432 36.4536 120.705 36.6313C120.979 36.8091 121.334 36.8979 121.771 36.8979ZM128.283 37.5747C128.283 37.1372 128.433 36.7715 128.734 36.4775C129.042 36.1836 129.448 36.0366 129.954 36.0366C130.46 36.0366 130.863 36.1836 131.164 36.4775C131.472 36.7715 131.625 37.1372 131.625 37.5747C131.625 38.0122 131.472 38.3779 131.164 38.6719C130.863 38.9658 130.46 39.1128 129.954 39.1128C129.448 39.1128 129.042 38.9658 128.734 38.6719C128.433 38.3779 128.283 38.0122 128.283 37.5747Z" fill="white"/>
<defs>
<clipPath id="clip0_41_3426">
<rect width="32.7311" height="39.5" fill="white" transform="translate(0.840332 1)"/>
</clipPath>
</defs>
</svg>
